<svg id="visual" viewBox="0 0 900 450" width="900" height="450" xmlns="http://www.w3.org/2000/svg" xmlns:xlink="http://www.w3.org/1999/xlink" version="1.1"><rect x="0" y="0" width="900" height="450" fill="#5fdd31"></rect><path d="M0 330L21.5 328.2C43 326.3 86 322.7 128.8 319.2C171.7 315.7 214.3 312.3 257.2 307.7C300 303 343 297 385.8 298.3C428.7 299.7 471.3 308.3 514.2 307.3C557 306.3 600 295.7 642.8 293.7C685.7 291.7 728.3 298.3 771.2 306.8C814 315.3 857 325.7 878.5 330.8L900 336L900 451L878.5 451C857 451 814 451 771.2 451C728.3 451 685.7 451 642.8 451C600 451 557 451 514.2 451C471.3 451 428.7 451 385.8 451C343 451 300 451 257.2 451C214.3 451 171.7 451 128.8 451C86 451 43 451 21.5 451L0 451Z" fill="#dd4231"></path><path d="M0 319L21.5 320.7C43 322.3 86 325.7 128.8 329.7C171.7 333.7 214.3 338.3 257.2 334.7C300 331 343 319 385.8 313.8C428.7 308.7 471.3 310.3 514.2 315.2C557 320 600 328 642.8 331.8C685.7 335.7 728.3 335.3 771.2 337.7C814 340 857 345 878.5 347.5L900 350L900 451L878.5 451C857 451 814 451 771.2 451C728.3 451 685.7 451 642.8 451C600 451 557 451 514.2 451C471.3 451 428.7 451 385.8 451C343 451 300 451 257.2 451C214.3 451 171.7 451 128.8 451C86 451 43 451 21.5 451L0 451Z" fill="#e86c1f"></path><path d="M0 383L21.5 379.3C43 375.7 86 368.3 128.8 364.5C171.7 360.7 214.3 360.3 257.2 355.2C300 350 343 340 385.8 340.5C428.7 341 471.3 352 514.2 355C557 358 600 353 642.8 349.3C685.7 345.7 728.3 343.3 771.2 345.3C814 347.3 857 353.7 878.5 356.8L900 360L900 451L878.5 451C857 451 814 451 771.2 451C728.3 451 685.7 451 642.8 451C600 451 557 451 514.2 451C471.3 451 428.7 451 385.8 451C343 451 300 451 257.2 451C214.3 451 171.7 451 128.8 451C86 451 43 451 21.5 451L0 451Z" fill="#eb9309"></path><path d="M0 399L21.5 395.2C43 391.3 86 383.7 128.8 381C171.7 378.3 214.3 380.7 257.2 382.3C300 384 343 385 385.8 388.3C428.7 391.7 471.3 397.3 514.2 396C557 394.7 600 386.3 642.8 385.3C685.7 384.3 728.3 390.7 771.2 391.8C814 393 857 389 878.5 387L900 385L900 451L878.5 451C857 451 814 451 771.2 451C728.3 451 685.7 451 642.8 451C600 451 557 451 514.2 451C471.3 451 428.7 451 385.8 451C343 451 300 451 257.2 451C214.3 451 171.7 451 128.8 451C86 451 43 451 21.5 451L0 451Z" fill="#e6b90c"></path><path d="M0 420L21.5 418C43 416 86 412 128.8 408.3C171.7 404.7 214.3 401.3 257.2 403.8C300 406.3 343 414.7 385.8 415.5C428.7 416.3 471.3 409.7 514.2 405C557 400.3 600 397.7 642.8 396.2C685.7 394.7 728.3 394.3 771.2 400C814 405.7 857 417.3 878.5 423.2L900 429L900 451L878.5 451C857 451 814 451 771.2 451C728.3 451 685.7 451 642.8 451C600 451 557 451 514.2 451C471.3 451 428.7 451 385.8 451C343 451 300 451 257.2 451C214.3 451 171.7 451 128.8 451C86 451 43 451 21.5 451L0 451Z" fill="#dadd31"></path></svg>